<?xml version="1.0" standalone="no"?>
<!DOCTYPE svg PUBLIC "-//W3C//DTD SVG 20010904//EN"
 "http://www.w3.org/TR/2001/REC-SVG-20010904/DTD/svg10.dtd">
<svg version="1.0" xmlns="http://www.w3.org/2000/svg"
 width="180.000000pt" height="180.000000pt" viewBox="0 0 180.000000 180.000000"
 preserveAspectRatio="xMidYMid meet">
<metadata>
Created by potrace 1.15, written by Peter Selinger 2001-2017
</metadata>
<g transform="translate(0.000000,180.000000) scale(0.100000,-0.100000)"
fill="#000000" stroke="none">
<path d="M819 1223 c-8 -9 -113 -106 -234 -217 -198 -181 -299 -273 -344 -316
-13 -12 -39 -14 -129 -12 l-112 3 0 -35 0 -36 475 0 475 0 0 35 c0 32 -3 35
-27 35 l-28 0 3 267 c1 146 -1 270 -5 273 -19 18 -61 19 -74 3z m6 -313 l0
-230 -254 0 -255 0 55 49 c29 26 142 130 249 229 107 100 197 181 200 181 3 1
5 -102 5 -229z"/>
<path d="M1150 1165 l0 -75 58 0 c31 0 73 -3 92 -6 31 -5 37 -3 49 20 18 32
25 33 39 1 8 -17 20 -25 37 -25 31 0 31 6 -1 53 l-25 37 20 29 c12 16 21 32
21 35 0 14 -50 4 -59 -11 -10 -17 -12 -17 -25 0 -7 9 -25 17 -40 17 l-27 0 20
-29 c25 -35 26 -41 4 -80 -18 -31 -40 -43 -29 -16 4 12 -4 15 -39 15 -25 0
-45 5 -45 10 0 6 18 10 40 10 33 0 40 3 40 19 0 16 -8 21 -42 24 l-43 4 43 1
c35 2 42 5 42 22 0 18 -7 20 -65 20 l-65 0 0 -75z"/>
<path d="M1460 1165 c0 -73 1 -75 25 -75 20 0 25 5 25 25 0 18 5 25 20 25 15
0 20 -7 20 -25 0 -21 5 -25 30 -25 l30 0 0 75 0 75 -30 0 c-25 0 -30 -4 -30
-25 0 -18 -5 -25 -20 -25 -15 0 -20 7 -20 25 0 20 -5 25 -25 25 -24 0 -25 -2
-25 -75z"/>
<path d="M1646 1225 c-8 -9 -18 -32 -22 -52 -6 -33 -3 -40 25 -65 38 -34 71
-36 107 -4 34 28 38 84 9 116 -22 25 -96 28 -119 5z"/>
<path d="M1110 1002 c-73 -29 -110 -84 -115 -170 -6 -110 39 -177 136 -206 47
-14 54 -14 104 5 81 30 125 95 125 184 0 71 -41 149 -92 176 -38 20 -121 26
-158 11z m135 -87 c14 -13 25 -30 26 -37 9 -109 4 -133 -32 -167 -30 -28 -88
-28 -122 0 -53 41 -58 155 -9 204 35 35 103 35 137 0z"/>
<path d="M1658 993 c-6 -7 -7 -13 -4 -13 4 0 2 -9 -4 -20 -6 -10 -12 -32 -14
-47 -6 -47 -28 -123 -37 -128 -9 -6 -29 57 -29 92 0 12 -5 25 -10 28 -6 4 -10
12 -8 18 1 7 -2 27 -6 45 -8 32 -8 32 -72 32 l-64 0 0 -190 0 -190 40 0 39 0
3 128 c2 83 6 117 11 97 4 -16 17 -73 30 -125 l22 -95 42 -3 c47 -3 41 -14 68
113 8 39 21 93 28 120 14 49 14 48 15 -80 0 -71 1 -136 1 -143 1 -9 13 -12 39
-10 l37 3 3 187 2 186 -61 4 c-40 2 -64 -1 -71 -9z"/>
</g>
</svg>
